name rise44.8762peak52.3436fall86.788.mot
datacolumns 19
datarows 24
range 6.88330200000000 6.92163500000000
endheader
time	ground_force1_vx	ground_force1_vy	ground_force1_vz	ground_force1_px	ground_force1_py	ground_force1_pz	ground_force2_vx	ground_force2_vy	ground_force2_vz	ground_force2_px	ground_force2_py	ground_force2_pz	ground_torque1_x	ground_torque1_y	ground_torque1_z	ground_torque2_x	ground_torque2_y	ground_torque2_z	
6.88330200000000	64.50423300000000	790.37283700000000	57.35251700000000	0.28644900000000	0.00000000000000	0.09542600000000	0.00000000000000	0.00000000000000	0.00000000000000	0.00000000000000	0.00000000000000	0.00000000000000	0.00000000000000	19.73095200000000	0.00000000000000	0.00000000000000	0.00000000000000	0.00000000000000	
6.88497500000000	63.36978900000000	789.60297000000003	57.10868500000000	0.28519600000000	0.00000000000000	0.09537800000000	0.00000000000000	0.00000000000000	0.00000000000000	0.00000000000000	0.00000000000000	0.00000000000000	0.00000000000000	19.63462000000000	0.00000000000000	0.00000000000000	0.00000000000000	0.00000000000000	
6.88664200000000	62.24604000000000	788.72220500000003	56.85596300000000	0.28396700000000	0.00000000000000	0.09532700000000	0.00000000000000	0.00000000000000	0.00000000000000	0.00000000000000	0.00000000000000	0.00000000000000	0.00000000000000	19.53445700000000	0.00000000000000	0.00000000000000	0.00000000000000	0.00000000000000	
6.88830700000000	61.13433600000000	787.73565199999996	56.59512800000000	0.28276200000000	0.00000000000000	0.09527500000000	0.00000000000000	0.00000000000000	0.00000000000000	0.00000000000000	0.00000000000000	0.00000000000000	0.00000000000000	19.43076700000000	0.00000000000000	0.00000000000000	0.00000000000000	0.00000000000000	
6.88997500000000	60.03592400000000	786.64850100000001	56.32691500000000	0.28158100000000	0.00000000000000	0.09522100000000	0.00000000000000	0.00000000000000	0.00000000000000	0.00000000000000	0.00000000000000	0.00000000000000	0.00000000000000	19.32383700000000	0.00000000000000	0.00000000000000	0.00000000000000	0.00000000000000	
6.89164100000000	58.95195000000000	785.46601999999996	56.05201700000000	0.28042300000000	0.00000000000000	0.09516500000000	0.00000000000000	0.00000000000000	0.00000000000000	0.00000000000000	0.00000000000000	0.00000000000000	0.00000000000000	19.21392700000000	0.00000000000000	0.00000000000000	0.00000000000000	0.00000000000000	
6.89330300000000	57.88346600000000	784.19354599999997	55.77108600000000	0.27928700000000	0.00000000000000	0.09510700000000	0.00000000000000	0.00000000000000	0.00000000000000	0.00000000000000	0.00000000000000	0.00000000000000	0.00000000000000	19.10128000000000	0.00000000000000	0.00000000000000	0.00000000000000	0.00000000000000	
6.89497200000000	56.83142300000000	782.83647499999995	55.48473600000000	0.27817200000000	0.00000000000000	0.09504800000000	0.00000000000000	0.00000000000000	0.00000000000000	0.00000000000000	0.00000000000000	0.00000000000000	0.00000000000000	18.98611800000000	0.00000000000000	0.00000000000000	0.00000000000000	0.00000000000000	
6.89664100000000	55.79668200000000	781.40026100000000	55.19354200000000	0.27707800000000	0.00000000000000	0.09498700000000	0.00000000000000	0.00000000000000	0.00000000000000	0.00000000000000	0.00000000000000	0.00000000000000	0.00000000000000	18.86864300000000	0.00000000000000	0.00000000000000	0.00000000000000	0.00000000000000	
6.89830400000000	54.78000900000000	779.89039900000000	54.89804100000000	0.27600400000000	0.00000000000000	0.09492400000000	0.00000000000000	0.00000000000000	0.00000000000000	0.00000000000000	0.00000000000000	0.00000000000000	0.00000000000000	18.74904200000000	0.00000000000000	0.00000000000000	0.00000000000000	0.00000000000000	
6.89997800000000	53.78208300000000	778.31242199999997	54.59873700000000	0.27494700000000	0.00000000000000	0.09486100000000	0.00000000000000	0.00000000000000	0.00000000000000	0.00000000000000	0.00000000000000	0.00000000000000	0.00000000000000	18.62748600000000	0.00000000000000	0.00000000000000	0.00000000000000	0.00000000000000	
6.90163700000000	52.80349700000000	776.67188999999996	54.29610300000000	0.27390900000000	0.00000000000000	0.09479600000000	0.00000000000000	0.00000000000000	0.00000000000000	0.00000000000000	0.00000000000000	0.00000000000000	0.00000000000000	18.50413100000000	0.00000000000000	0.00000000000000	0.00000000000000	0.00000000000000	
6.90330900000000	51.84475800000000	774.97437700000000	53.99057700000000	0.27288600000000	0.00000000000000	0.09472900000000	0.00000000000000	0.00000000000000	0.00000000000000	0.00000000000000	0.00000000000000	0.00000000000000	0.00000000000000	18.37912000000000	0.00000000000000	0.00000000000000	0.00000000000000	0.00000000000000	
6.90497300000000	50.90629700000000	773.22546299999999	53.68257200000000	0.27187800000000	0.00000000000000	0.09466200000000	0.00000000000000	0.00000000000000	0.00000000000000	0.00000000000000	0.00000000000000	0.00000000000000	0.00000000000000	18.25258600000000	0.00000000000000	0.00000000000000	0.00000000000000	0.00000000000000	
6.90664300000000	49.98846500000000	771.43072299999994	53.37247300000000	0.27088400000000	0.00000000000000	0.09459300000000	0.00000000000000	0.00000000000000	0.00000000000000	0.00000000000000	0.00000000000000	0.00000000000000	0.00000000000000	18.12465100000000	0.00000000000000	0.00000000000000	0.00000000000000	0.00000000000000	
6.90830200000000	49.09154300000000	769.59571500000004	53.06064000000000	0.26990200000000	0.00000000000000	0.09452400000000	0.00000000000000	0.00000000000000	0.00000000000000	0.00000000000000	0.00000000000000	0.00000000000000	0.00000000000000	17.99542900000000	0.00000000000000	0.00000000000000	0.00000000000000	0.00000000000000	
6.90997100000000	48.21574000000000	767.72596599999997	52.74741100000000	0.26893100000000	0.00000000000000	0.09445300000000	0.00000000000000	0.00000000000000	0.00000000000000	0.00000000000000	0.00000000000000	0.00000000000000	0.00000000000000	17.86502600000000	0.00000000000000	0.00000000000000	0.00000000000000	0.00000000000000	
6.91164100000000	47.36120300000000	765.82696599999997	52.43310600000000	0.26796900000000	0.00000000000000	0.09438200000000	0.00000000000000	0.00000000000000	0.00000000000000	0.00000000000000	0.00000000000000	0.00000000000000	0.00000000000000	17.73354300000000	0.00000000000000	0.00000000000000	0.00000000000000	0.00000000000000	
6.91330900000000	46.52801300000000	763.90414899999996	52.11802500000000	0.26701500000000	0.00000000000000	0.09431000000000	0.00000000000000	0.00000000000000	0.00000000000000	0.00000000000000	0.00000000000000	0.00000000000000	0.00000000000000	17.60107600000000	0.00000000000000	0.00000000000000	0.00000000000000	0.00000000000000	
6.91497100000000	45.71619700000000	761.96288400000003	51.80245400000000	0.26606800000000	0.00000000000000	0.09423700000000	0.00000000000000	0.00000000000000	0.00000000000000	0.00000000000000	0.00000000000000	0.00000000000000	0.00000000000000	17.46771800000000	0.00000000000000	0.00000000000000	0.00000000000000	0.00000000000000	
6.91663800000000	44.92572500000000	760.00846600000000	51.48666400000000	0.26512700000000	0.00000000000000	0.09416400000000	0.00000000000000	0.00000000000000	0.00000000000000	0.00000000000000	0.00000000000000	0.00000000000000	0.00000000000000	17.33356100000000	0.00000000000000	0.00000000000000	0.00000000000000	0.00000000000000	
6.91830700000000	44.15651800000000	758.04609600000003	51.17091500000000	0.26418900000000	0.00000000000000	0.09409000000000	0.00000000000000	0.00000000000000	0.00000000000000	0.00000000000000	0.00000000000000	0.00000000000000	0.00000000000000	17.19869400000000	0.00000000000000	0.00000000000000	0.00000000000000	0.00000000000000	
6.91997600000000	43.40845000000000	756.08087499999999	50.85545800000000	0.26325400000000	0.00000000000000	0.09401600000000	0.00000000000000	0.00000000000000	0.00000000000000	0.00000000000000	0.00000000000000	0.00000000000000	0.00000000000000	17.06320700000000	0.00000000000000	0.00000000000000	0.00000000000000	0.00000000000000	
6.92163500000000	42.68135000000000	754.11779100000001	50.54053500000000	0.26232100000000	0.00000000000000	0.09394100000000	0.00000000000000	0.00000000000000	0.00000000000000	0.00000000000000	0.00000000000000	0.00000000000000	0.00000000000000	16.92719100000000	0.00000000000000	0.00000000000000	0.00000000000000	0.00000000000000	
